# AST/ASF file generated using VICON BodyLanguage
# -----------------------------------------------
:version 1.10
:name VICON
:units
  mass 1.0
  length 0.45
  angle deg
:documentation
   .ast/.asf automatically generated from VICON data using
   VICON BodyBuilder and BodyLanguage model FoxedUp or BRILLIANT.MOD
:root
   order TX TY TZ RX RY RZ
   axis XYZ
   position 0 0 0  
   orientation 0 0 0 
:bonedata
  begin
     id 1 
     name lhipjoint
     direction 0.602128 -0.715006 0.355257 
     length 2.21237 
     axis 0 0 0  XYZ
  end
  begin
     id 2 
     name lfemur
     direction 0.34202 -0.939693 0  
     length 6.71649  
     axis 0 0 20  XYZ
    dof rx ry rz
    limits (-160.0 20.0)
           (-70.0 70.0)
           (-60.0 70.0)
  end
  begin
     id 3 
     name ltibia
     direction 0.34202 -0.939693 0   
     length 6.97123   
     axis 0 0 20   XYZ
    dof rx
    limits (-10.0 170.0)
  end
  begin
     id 4 
     name lfoot
     direction 0.0655697 -0.180151 0.981451   
     length 1.80924   
     axis -90 7.62852e-016 20   XYZ
    dof rx rz
    limits (-45.0 90.0)
           (-70.0 20.0)
  end
  begin
     id 5 
     name ltoes
     direction 1.53545e-011 -4.21827e-011 1   
     length 0.916331   
     axis -90 7.62852e-016 20   XYZ
    dof rx
    limits (-90.0 20.0)
  end
  begin
     id 6 
     name rhipjoint
     direction -0.625414 -0.698792 0.347201   
     length 2.2637  
     axis 0 0 0  XYZ 
  end
  begin
     id 7 
     name rfemur
     direction -0.34202 -0.939693 0   
     length 7.07595   
     axis 0 0 -20   XYZ
    dof rx ry rz
    limits (-160.0 20.0)
           (-70.0 70.0)
           (-70.0 60.0)
  end
  begin
     id 8 
     name rtibia
     direction -0.34202 -0.939693 0   
     length 7.22924   
     axis 0 0 -20   XYZ
    dof rx
    limits (-10.0 170.0)
 end
 begin
     id 9 
     name rfoot
     direction -0.0766747 -0.210662 0.974547   
     length 1.98482  
     axis -90 -7.62852e-016 -20   XYZ
    dof rx rz
    limits (-45.0 90.0)
           (-20.0 70.0)
  end
  begin
     id 10 
     name rtoes
     direction -1.53532e-011 -4.21867e-011 1   
     length 0.999842   
     axis -90 -7.62852e-016 -20   XYZ
    dof rx
    limits (-90.0 20.0)
  end
  begin
     id 11 
     name lowerback
     direction -0.0224668 0.997354 -0.0691422   
     length 2.09945   
     axis 0 0 0   XYZ
    dof rx ry rz
    limits (-20.0 45.0)
           (-30.0 30.0)
           (-30.0 30.0)
  end
  begin
     id 12 
     name upperback
     direction 0.0134698 0.998451 -0.0539888   
     length 2.09758   
     axis 0 0 0   XYZ
    dof rx ry rz
    limits (-20.0 45.0)
           (-30.0 30.0)
           (-30.0 30.0)
  end
  begin
     id 13 
     name thorax
     direction 0.0241905 0.99948 -0.0213333   
     length 2.10428   
     axis 0 0 0   XYZ
    dof rx ry rz
    limits (-20.0 45.0)
           (-30.0 30.0)
           (-30.0 30.0)
  end
  begin
     id 14 
     name lowerneck
     direction -0.00866847 0.995978 0.0891737   
     length 1.3959   
     axis 0 0 0   XYZ
    dof rx ry rz
    limits (-20.0 45.0)
           (-30.0 30.0)
           (-30.0 30.0)
  end
  begin
     id 15 
     name upperneck
     direction 0.0680679 0.992203 0.104404   
     length 1.39452   
     axis 0 0 0   XYZ
    dof rx ry rz
    limits (-20.0 45.0)
           (-30.0 30.0)
           (-30.0 30.0)
  end
  begin
     id 16
     name head
     direction 0.0242216 0.999358 0.0264054  
     length 1.40433  
     axis 0 0 0   XYZ
    dof rx ry rz
    limits (-20.0 45.0)
           (-30.0 30.0)
           (-30.0 30.0)
  end
  begin
     id 17 
     name lclavicle
     direction 0.929368 0.362991 -0.0671771  
     length 3.04887  
     axis 0 0 0   XYZ
    dof ry rz
    limits (-20.0 10.0)
           (0.0 20.0)
  end
  begin
     id 18 
     name lhumerus
     direction 1 -4.48967e-011 -7.13741e-028   
     length 4.77195   
     axis -180 -30 -90   XYZ
    dof rx ry rz
    limits (-60.0 90.0)
           (-90.0 90.0)
           (-90.0 90.0)
  end
  begin
     id 19
     name lradius
     direction 1 -4.48977e-011 3.60404e-027   
     length 2.98444   
     axis -180 -30 -90   XYZ
    dof rx
    limits (-10.0 170.0)
  end
  begin
     id 20
     name lwrist
     direction 1 -4.48997e-011 7.54877e-027   
     length 1.49222   
     axis -7.18178e-015 90 90   XYZ
    dof ry
    limits (-180.0 0.0)
 end
  begin
     id 21 
     name lhand
     direction 1 -4.489e-011 1.51105e-026   
     length 0.992285   
     axis -9.63605e-015 90 90   XYZ
    dof rx rz
    limits (-90.0 90.0)
           (-45.0 45.0)
  end
  begin
     id 22 
     name lfingers
     direction 1 -4.48998e-011 3.01948e-026   
     length 0.800006   
     axis -1.92718e-014 90 90   XYZ
    dof rx
    limits (0.0 90.0)
  end
  begin
     id 23
     name lthumb
     direction 0.707107 -6.34881e-011 0.707107   
     length 1.14865   
     axis -90 45 -3.53137e-014   XYZ
    dof rx rz
    limits (-45.0 45.0)
           (-45.0 45.0)
  end
  begin
     id 24 
     name rclavicle
     direction -0.945672 0.324529 0.0196374   
     length 3.4236  
     axis 0 0 0   XYZ 
    dof ry rz
    limits (-10.0 20.0)
           (-20.0 0.0)
  end
  begin
     id 25 
     name rhumerus
     direction -1 -4.4896e-011 1.02757e-029  
     length 4.62052   
     axis -180 30 90   XYZ
    dof rx ry rz
    limits (-90.0 60.0)
           (-90.0 90.0)
           (-90.0 90.0)
  end
  begin
     id 26 
     name rradius
     direction -1 -4.48982e-011 3.85962e-027   
     length 2.95332   
     axis -180 30 90   XYZ
    dof rx
    limits (-10.0 170.0)
  end
  begin
     id 27 
     name rwrist
     direction -1 -4.48961e-011 7.55118e-027   
     length 1.47666   
     axis -7.18178e-015 -90 -90   XYZ
    dof ry
    limits (-180.0 0.0)
  end
  begin
     id 28
     name rhand
     direction -1 -4.48984e-011 1.50994e-026   
     length 0.990956   
     axis -9.63605e-015 -90 -90   XYZ
    dof rx rz
    limits (-90.0 90.0)
           (-45.0 45.0)
  end
  begin
     id 29
     name rfingers
     direction -1 -4.4892e-011 3.02158e-026   
     length 0.798934   
     axis -1.92718e-014 -90 -90   XYZ
    dof rx
    limits (0.0 90.0)
  end
  begin
     id 30
     name rthumb
     direction -0.707107 -6.34916e-011 0.707107   
     length 1.14711   
     axis -90 -45 3.53137e-014   XYZ
    dof rx rz
    limits (-45.0 45.0)
           (-45.0 45.0)
  end
:hierarchy
  begin
    root lhipjoint rhipjoint lowerback
    lhipjoint lfemur
    lfemur ltibia
    ltibia lfoot
    lfoot ltoes
    rhipjoint rfemur
    rfemur rtibia
    rtibia rfoot
    rfoot rtoes
    lowerback upperback
    upperback thorax
    thorax lowerneck lclavicle rclavicle
    lowerneck upperneck
    upperneck head
    lclavicle lhumerus
    lhumerus lradius
    lradius lwrist
    lwrist lhand lthumb
    lhand lfingers
    rclavicle rhumerus
    rhumerus rradius
    rradius rwrist
    rwrist rhand rthumb
    rhand rfingers
  end

#!OML:ASF H:\ManfredObstacles\Project 1\Capture day 1\Session 1\Male.ASF
:FULLY-SPECIFIED
:DEGREES
17
root 0.123598 16.101 33.9667 -171.896 -13.5762 -179.422
lowerback -10.0008 -2.28975 -4.1539
upperback 1.7241 -2.61592 1.137
thorax 7.69657 -1.48978 3.1088
lowerneck 1.91163 -3.22267 -5.06756
upperneck -14.5579 -4.23275 10.2189
head -4.29389 -2.73808 4.19582
rclavicle 1.94064e-014 5.06901e-015
rhumerus -38.7342 -32.32 -69.7967
rradius 21.3005
rwrist 39.076
rhand -2.29411 -7.77905
rfingers 7.12502
rthumb 23.3913 -36.3775
lclavicle 1.94064e-014 5.06901e-015
lhumerus -30.2555 14.1147 82.8875
lradius 16.9857
lwrist -32.7507
lhand -8.92513 9.385
lfingers 7.12502
lthumb 17.0185 38.6595
rfemur -30.6899 -5.65721 18.492
rtibia 24.7917
rfoot -6.53177 3.99731
rtoes 1.91319
lfemur 1.12285 -8.14249 -20.7249
ltibia 7.23293
lfoot -8.66795 -3.08924
ltoes 14.2074
18
root 0.124163 16.1006 33.9652 -171.807 -13.5347 -179.392
lowerback -10.0212 -2.29719 -4.15035
upperback 1.72377 -2.63118 1.20989
thorax 7.71296 -1.4994 3.18101
lowerneck 1.85234 -3.20233 -5.15718
upperneck -14.4767 -4.20792 10.2049
head -4.25942 -2.71525 4.20142
rclavicle -2.16178e-015 -8.15017e-015
rhumerus -38.7625 -32.3055 -69.6302
rradius 21.2951
rwrist 39.1416
rhand -2.22511 -7.82264
rfingers 7.12502
rthumb 23.4575 -36.4127
lclavicle -2.16178e-015 -8.15017e-015
lhumerus -29.9599 13.4071 83.5604
lradius 17.3585
lwrist -32.0517
lhand -8.82715 9.23013
lfingers 7.12502
lthumb 17.1128 38.4965
rfemur -30.8304 -5.80556 18.5992
rtibia 24.8268
rfoot -6.76867 4.1942
rtoes 5.67369
lfemur 1.03225 -8.09906 -20.6761
ltibia 7.23766
lfoot -8.85586 -3.15533
ltoes 13.8634
19
root 0.125856 16.0992 33.9617 -171.755 -13.4882 -179.387
lowerback -9.98479 -2.31222 -4.09648
upperback 1.71895 -2.65996 1.21363
thorax 7.68687 -1.51063 3.1508
lowerneck 1.78498 -3.13687 -5.28286
upperneck -14.3403 -4.10986 10.3455
head -4.20733 -2.66301 4.25742
rclavicle 9.30561e-015 -4.67144e-015
rhumerus -38.8514 -32.4713 -69.4236
rradius 21.1844
rwrist 39.4849
rhand -2.2575 -7.75723
rfingers 7.12502
rthumb 23.4264 -36.3512
lclavicle 9.30561e-015 -4.67144e-015
lhumerus -29.7596 12.7377 84.0674
lradius 17.7631
lwrist -31.3814
lhand -8.69448 9.03981
lfingers 7.12502
lthumb 17.2405 38.295
rfemur -30.9269 -5.8914 18.6506
rtibia 24.8829
rfoot -6.68277 4.37444
rtoes 3.53563
lfemur 1.03952 -8.05168 -20.6657
ltibia 7.15429
lfoot -8.90354 -3.18802
ltoes 14.0581
20
root 0.127784 16.0987 33.9565 -171.72 -13.4506 -179.414
lowerback -9.90798 -2.28823 -3.95383
upperback 1.72064 -2.64006 1.09821
thorax 7.62928 -1.49047 2.95354
lowerneck 1.80659 -3.09511 -5.21983
upperneck -14.3801 -4.04574 10.4303
head -4.22723 -2.64401 4.27361
rclavicle -3.69739e-014 1.59028e-015
rhumerus -39.0262 -32.8583 -69.2672
rradius 21.036
rwrist 39.8783
rhand -2.41758 -7.5549
rfingers 7.12502
rthumb 23.2728 -36.1684
lclavicle -3.69739e-014 1.59028e-015
lhumerus -29.5952 11.8151 84.4521
lradius 18.1785
lwrist -30.5133
lhand -8.62779 9.01605
lfingers 7.12502
lthumb 17.3047 38.2656
rfemur -30.9826 -5.80303 18.6047
rtibia 24.955
rfoot -6.65856 4.35183
rtoes 3.06144
lfemur 1.09554 -8.01618 -20.6975
ltibia 7.02994
lfoot -8.81088 -3.15317
ltoes 14.4516
21
root 0.129201 16.0978 33.9509 -171.643 -13.4348 -179.382
lowerback -9.85222 -2.25522 -3.8031
upperback 1.72378 -2.61359 1.0533
thorax 7.58829 -1.46911 2.82715
lowerneck 1.69721 -3.10122 -5.15681
upperneck -14.3501 -4.05847 10.3683
head -4.2019 -2.64834 4.2405
rclavicle -1.46976e-014 1.63997e-014
rhumerus -39.114 -33.1094 -69.1562
rradius 20.9569
rwrist 39.9958
rhand -2.50465 -7.4472
rfingers 7.12502
rthumb 23.1893 -36.0713
lclavicle -1.46976e-014 1.63997e-014
lhumerus -29.4327 10.7106 84.9768
lradius 18.6438
lwrist -29.5037
lhand -8.64189 8.97747
lfingers 7.12502
lthumb 17.2911 38.2283
rfemur -31.0769 -5.69532 18.6261
rtibia 25.0028
rfoot -6.59675 4.28727
rtoes 2.88704
lfemur 1.03125 -7.99687 -20.6485
ltibia 6.97045
lfoot -8.76976 -3.12829
ltoes 14.6999
22
root 0.131298 16.0951 33.9445 -171.523 -13.3766 -179.254
lowerback -9.82302 -2.234 -3.63583
upperback 1.71156 -2.61198 1.11209
thorax 7.55274 -1.46194 2.79659
lowerneck 1.47772 -3.10947 -5.23621
upperneck -14.1921 -4.07578 10.3307
head -4.11483 -2.64157 4.23194
rclavicle 3.70236e-014 -9.93923e-017
rhumerus -39.1391 -33.2584 -69.0069
rradius 20.9047
rwrist 40.0759
rhand -2.43972 -7.51578
rfingers 7.12502
rthumb 23.2516 -36.132
lclavicle 3.70236e-014 -9.93923e-017
lhumerus -29.2106 9.99824 85.4762
lradius 18.9232
lwrist -28.8589
lhand -8.69113 9.11003
lfingers 7.12502
lthumb 17.2437 38.365
rfemur -31.2397 -5.63119 18.7867
rtibia 25.0292
rfoot -6.65048 4.30436
rtoes 2.6659
lfemur 0.834852 -7.92577 -20.4776
ltibia 7.01503
lfoot -8.828 -3.18571
ltoes 15.7695
23
root 0.134391 16.0953 33.9377 -171.389 -13.2699 -179.072
lowerback -9.77113 -2.20143 -3.39659
upperback 1.6942 -2.60467 1.16681
thorax 7.49442 -1.4485 2.72286
lowerneck 1.31497 -3.09262 -5.31479
upperneck -14.1944 -4.056 10.397
head -4.08583 -2.63284 4.26147
rclavicle -1.71576e-014 -9.14409e-015
rhumerus -39.1581 -33.3743 -68.9297
rradius 20.8839
rwrist 40.1438
rhand -2.31474 -7.55256
rfingers 7.12502
rthumb 23.3715 -36.1536
lclavicle -1.71576e-014 -9.14409e-015
lhumerus -28.9455 9.71396 85.7363
lradius 19.0077
lwrist -28.6886
lhand -8.76285 9.18684
lfingers 7.12502
lthumb 17.1747 38.4478
rfemur -31.4563 -5.51183 19.0096
rtibia 25.0847
rfoot -6.71604 4.31798
rtoes 2.68534
lfemur 0.662464 -7.79745 -20.2482
ltibia 7.03358
lfoot -8.89897 -3.2142
ltoes 16.5
